<svg width="10" height="9" viewBox="0 0 10 9" fill="none" xmlns="http://www.w3.org/2000/svg">
<path d="M9.62315 4.20688C9.62277 4.04566 9.55865 3.89112 9.44477 3.77699L6.19129 0.373249C6.06272 0.243881 5.92934 0.18683 5.79033 0.18683C5.71786 0.184691 5.64573 0.197455 5.5784 0.22433C5.51107 0.251206 5.44997 0.291621 5.39889 0.343072C5.34782 0.394523 5.30786 0.455914 5.28148 0.523441C5.25509 0.590968 5.24286 0.663192 5.24553 0.73564C5.24553 0.901167 5.30982 1.04098 5.40945 1.14544L6.52314 2.32663L7.95905 3.69905L6.81 3.62673H0.809255C0.477398 3.62673 0.25 3.86458 0.25 4.20688C0.25 4.54356 0.477398 4.78221 0.809255 4.78221H6.81161L7.96065 4.70989L6.52395 6.08232L5.41026 7.2635C5.30406 7.37336 5.2452 7.52051 5.24634 7.6733C5.24634 7.98909 5.47454 8.22211 5.79113 8.22211C5.86491 8.2206 5.93763 8.20416 6.00488 8.17377C6.07214 8.14339 6.13254 8.0997 6.18245 8.04533L9.44557 4.63195C9.55884 4.51905 9.62295 4.366 9.62396 4.20608L9.62315 4.20688Z" fill="#70737B"/>
</svg>
