<svg width="24" height="24" viewBox="0 0 24 24" fill="none" xmlns="http://www.w3.org/2000/svg"><path d="M12 6.133c3.79 0 7.17 2.272 8.82 5.867-1.65 3.595-5.03 5.867-8.82 5.867S4.83 15.595 3.18 12C4.83 8.405 8.21 6.133 12 6.133zM12 4C7 4 2.73 7.317 1 12c1.73 4.683 6 8 11 8s9.27-3.317 11-8c-1.73-4.683-6-8-11-8zm0 5.333c1.38 0 2.5 1.195 2.5 2.667 0 1.472-1.12 2.667-2.5 2.667S9.5 13.472 9.5 12c0-1.472 1.12-2.667 2.5-2.667zM12 7.2c-2.48 0-4.5 2.155-4.5 4.8s2.02 4.8 4.5 4.8 4.5-2.155 4.5-4.8-2.02-4.8-4.5-4.8z" fill="#81848E"></path></svg>