<svg width="18" height="18" viewBox="0 0 18 18" fill="none" xmlns="http://www.w3.org/2000/svg">
<path d="M15.5732 10.128C15.4375 10.0185 15.3299 9.87818 15.2594 9.71866C15.189 9.55913 15.1577 9.38506 15.1682 9.21099C15.173 9.08037 15.173 8.94961 15.1682 8.81899C15.1562 8.44899 15.2952 8.07899 15.5902 7.85599L16.8482 6.89999C16.9226 6.84062 16.9736 6.75697 16.9925 6.66372C17.0113 6.57046 16.9967 6.47356 16.9512 6.38999L15.3052 3.61999C15.2022 3.43999 14.9862 3.37999 14.8012 3.43999L13.2692 4.03899C12.9492 4.16399 12.5892 4.10999 12.2972 3.92899C12.1653 3.84711 12.0302 3.77039 11.8922 3.69899C11.5742 3.53499 11.3342 3.24199 11.2822 2.88799L11.0572 1.33999C11.0411 1.24334 10.9907 1.15573 10.9152 1.09328C10.8397 1.03082 10.7442 0.997694 10.6462 0.99999H7.35424C7.14924 0.99999 6.98425 1.13999 6.95425 1.33999L6.72824 2.88799C6.67624 3.24199 6.43624 3.53599 6.11824 3.69999C5.98024 3.77299 5.84424 3.84999 5.71224 3.93199C5.42024 4.11199 5.06224 4.16399 4.74324 4.03999L3.20924 3.43999C3.11756 3.40507 3.01643 3.40402 2.92404 3.43701C2.83165 3.47001 2.75406 3.53489 2.70524 3.61999L1.05924 6.38999C1.00833 6.47215 0.990636 6.57063 1.00977 6.66538C1.02891 6.76013 1.08343 6.84403 1.16224 6.89999L2.42124 7.85599C2.71624 8.07999 2.85124 8.44799 2.83324 8.81799C2.82688 8.9389 2.82654 9.06005 2.83224 9.18099C2.84524 9.55099 2.70524 9.92099 2.41024 10.144L1.15224 11.1C1.07791 11.1594 1.02685 11.243 1.00802 11.3363C0.989183 11.4295 1.00378 11.5264 1.04924 11.61L2.69524 14.38C2.79824 14.56 3.01424 14.62 3.19924 14.56L4.73124 13.961C5.05124 13.836 5.41124 13.89 5.70324 14.071C5.83524 14.152 5.97024 14.229 6.10824 14.301C6.42624 14.465 6.66625 14.758 6.71825 15.112L6.94324 16.66C6.98424 16.86 7.14924 17 7.35424 17H10.6462C10.8512 17 11.0262 16.86 11.0462 16.66L11.2722 15.112C11.3242 14.758 11.5642 14.464 11.8822 14.3C12.0202 14.227 12.1562 14.15 12.2882 14.068C12.5802 13.888 12.9382 13.836 13.2572 13.96L14.7912 14.56C14.9762 14.63 15.1922 14.56 15.2952 14.38L16.9412 11.61C16.9922 11.5278 17.0099 11.4293 16.9907 11.3346C16.9716 11.2398 16.9171 11.156 16.8382 11.1L15.5732 10.128ZM9.00024 12C7.30324 12 5.91424 10.65 5.91424 8.99999C5.91424 7.34999 7.30324 5.99999 9.00024 5.99999C10.6972 5.99999 12.0862 7.34999 12.0862 8.99999C12.0862 10.65 10.6972 12 9.00024 12Z" stroke="#81848E" stroke-width="1.7"/>
</svg>
