<svg width="20" height="19" viewBox="0 0 20 19" fill="none" xmlns="http://www.w3.org/2000/svg">
<path fill-rule="evenodd" clip-rule="evenodd" d="M9.0336 1.09801C9.3966 0.24801 10.6036 0.24801 10.9656 1.09801L13.1096 6.12801L18.5966 6.59101C19.5236 6.66901 19.8986 7.82601 19.1936 8.43301L15.0306 12.018L16.2806 17.345C16.4936 18.249 15.5146 18.963 14.7186 18.485L9.9996 15.654L5.2806 18.485C4.4846 18.963 3.5066 18.249 3.7186 17.345L4.9686 12.018L0.805598 8.43301C0.100598 7.82601 0.475598 6.66901 1.4026 6.59101L6.8896 6.12801L9.0336 1.09801ZM9.9996 3.16801L8.2996 7.15501C8.22467 7.33049 8.10334 7.48224 7.94864 7.59394C7.79395 7.70564 7.61174 7.77308 7.4216 7.78901L3.0876 8.15501L6.3766 10.987C6.6726 11.242 6.8026 11.641 6.7136 12.022L5.7236 16.236L9.4596 13.996C9.7916 13.796 10.2076 13.796 10.5396 13.996L14.2746 16.236L13.2856 12.022C13.1956 11.642 13.3256 11.242 13.6226 10.987L16.9116 8.15501L12.5776 7.78901C12.3875 7.77308 12.2052 7.70564 12.0506 7.59394C11.8959 7.48224 11.7745 7.33049 11.6996 7.15501L9.9996 3.16701V3.16801Z" fill="#81848E"/>
</svg>
