<svg width="19" height="17" viewBox="0 0 19 17" fill="none" xmlns="http://www.w3.org/2000/svg">
<path d="M11.4159 6.75901C11.4145 6.75761 11.4136 6.75584 11.4132 6.75392C11.4128 6.752 11.413 6.75001 11.4138 6.7482C11.4145 6.74639 11.4158 6.74484 11.4174 6.74374C11.419 6.74264 11.4209 6.74204 11.4229 6.74201L17.7489 6.75201L17.7589 13.102C17.7589 13.11 17.7479 13.115 17.7419 13.109L15.6369 10.979L11.0279 15.588C10.8387 15.7724 10.585 15.8755 10.3209 15.8755C10.0567 15.8755 9.80304 15.7724 9.61388 15.588L8.90687 14.881C8.50687 14.481 8.52688 13.844 8.92488 13.447L13.5019 8.86901L11.4159 6.75901ZM7.51488 10.66C7.51632 10.6615 7.51728 10.6633 7.51763 10.6654C7.51798 10.6674 7.5177 10.6695 7.51682 10.6713C7.51595 10.6732 7.51453 10.6747 7.51275 10.6757C7.51097 10.6767 7.50892 10.6772 7.50688 10.677L1.18188 10.667L1.17188 4.31701C1.17188 4.30801 1.18188 4.30401 1.18888 4.31001L3.29388 6.44001L7.90188 1.83101C8.09104 1.64666 8.34474 1.54349 8.60888 1.54349C8.87301 1.54349 9.12671 1.64666 9.31588 1.83101L10.0229 2.53801C10.4229 2.93801 10.4029 3.57401 10.0049 3.97201L5.42788 8.55001L7.51488 10.66Z" stroke="#81848E" stroke-width="1.6"/>
</svg>
