<svg width="24" height="24" viewBox="0 0 24 24" fill="none" xmlns="http://www.w3.org/2000/svg" style="color: #70737B"><path d="M11.996 21C16.928 21 21 16.927 21 12c0-4.926-4.08-9-9.013-9C7.063 3 3 7.074 3 12c0 4.927 4.072 9 8.996 9zm0-5.988c-2.454 0-4.359.879-5.281 1.888A7.191 7.191 0 014.81 12a7.162 7.162 0 017.177-7.198A7.192 7.192 0 0119.199 12c0 1.898-.722 3.62-1.914 4.91-.922-1.02-2.827-1.898-5.29-1.898zm0-1.428c1.687.018 3.001-1.427 3.001-3.29 0-1.758-1.322-3.23-3.001-3.23-1.67 0-3.002 1.472-2.993 3.23.009 1.863 1.314 3.281 2.993 3.29z" fill="currentColor"></path></svg>