<?xml version="1.0" standalone="no"?>
<!DOCTYPE svg PUBLIC "-//W3C//DTD SVG 20010904//EN"
 "http://www.w3.org/TR/2001/REC-SVG-20010904/DTD/svg10.dtd">
<svg version="1.0" xmlns="http://www.w3.org/2000/svg"
 width="1280.000000pt" height="1280.000000pt" viewBox="0 0 1280.000000 1280.000000"
 preserveAspectRatio="xMidYMid meet">

<g transform="translate(0.000000,1280.000000) scale(0.100000,-0.100000)"
fill="#000000" stroke="none">
<path d="M0 6400 l0 -6400 6400 0 6400 0 0 6400 0 6400 -6400 0 -6400 0 0
-6400z m4464 3044 c46 -82 118 -217 160 -300 43 -82 82 -153 86 -159 4 -5 40
-73 80 -150 40 -77 159 -302 265 -500 106 -198 216 -405 245 -460 29 -55 65
-122 80 -150 15 -27 44 -84 65 -125 22 -41 60 -113 86 -160 48 -88 117 -218
202 -380 87 -168 217 -412 253 -477 12 -23 59 -111 103 -196 104 -198 104
-198 15 -355 -74 -131 -195 -340 -261 -450 -24 -40 -43 -75 -43 -78 0 -2 -11
-21 -23 -42 -13 -20 -95 -161 -182 -312 -86 -151 -189 -328 -227 -392 -69
-116 -71 -118 -107 -118 -40 0 -35 -8 -246 390 -48 91 -122 230 -165 310 -43
80 -98 183 -122 230 -25 47 -123 230 -217 407 -94 177 -171 325 -171 328 0 4
-8 19 -18 33 -11 15 -49 86 -87 157 -37 72 -80 153 -95 180 -15 28 -52 97 -82
155 -31 58 -71 134 -90 170 -19 36 -57 106 -83 155 -26 50 -65 122 -85 160
-44 83 -101 191 -240 455 -56 107 -115 211 -130 230 -22 29 -211 379 -500 925
-29 55 -91 172 -138 260 -170 320 -179 342 -166 393 l6 22 875 -2 876 -3 81
-151z m5726 113 c0 -23 -6 -51 -13 -62 -8 -11 -27 -45 -44 -75 -17 -30 -56
-100 -88 -155 -58 -100 -153 -263 -185 -320 -152 -263 -209 -362 -275 -475
-43 -74 -119 -207 -170 -295 -82 -144 -128 -222 -243 -420 -19 -33 -52 -89
-72 -125 -33 -59 -136 -238 -458 -795 -63 -110 -137 -236 -162 -280 -47 -79
-370 -640 -440 -765 -20 -36 -77 -135 -127 -220 -151 -260 -201 -346 -338
-585 -73 -126 -225 -391 -338 -588 -114 -197 -218 -377 -231 -400 -13 -23 -66
-114 -116 -202 -51 -88 -126 -218 -167 -290 -41 -71 -78 -134 -83 -140 -4 -5
-21 -35 -37 -65 -29 -53 -120 -211 -233 -405 -77 -133 -87 -145 -119 -145 -15
0 -35 8 -43 18 -13 14 -349 639 -555 1032 -28 52 -96 181 -152 286 -128 243
-127 227 -24 404 50 87 187 324 308 535 73 127 165 286 205 355 40 69 84 145
97 170 14 25 38 65 53 90 15 25 63 108 107 185 83 144 437 759 571 990 41 72
83 144 92 160 9 17 43 75 75 130 107 183 134 230 156 270 12 22 52 92 89 155
76 130 212 365 355 615 54 94 132 229 173 300 246 425 420 727 598 1038 19 33
43 72 55 88 l20 29 880 0 879 0 0 -43z m-2090 -18 c0 -40 -25 -95 -100 -219
-15 -25 -56 -96 -91 -158 -91 -160 -125 -220 -214 -372 -43 -74 -95 -164 -115
-200 -90 -160 -305 -528 -322 -552 l-19 -28 -874 0 -874 0 -39 68 c-21 37 -67
121 -102 187 -72 138 -129 244 -175 330 -18 33 -53 98 -77 145 -25 47 -65 121
-88 165 -48 90 -223 421 -281 534 -36 69 -48 119 -32 134 3 4 771 7 1705 7
l1698 0 0 -41z"/>
</g>
</svg>
